<?xml version="1.0" encoding="UTF-8" standalone="no"?>
<!DOCTYPE svg PUBLIC "-//W3C//DTD SVG 1.1//EN"
 "http://www.w3.org/Graphics/SVG/1.1/DTD/svg11.dtd">
<!-- Generated by graphviz version 2.47.0 (20210316.0004)
 -->
<!-- Title: dependencies Pages: 1 -->
<svg width="1075pt" height="211pt"
 viewBox="0.00 0.00 1075.00 211.00" xmlns="http://www.w3.org/2000/svg" xmlns:xlink="http://www.w3.org/1999/xlink">
<g id="graph0" class="graph" transform="scale(1 1) rotate(0) translate(4 207)">
<title>dependencies</title>
<polygon fill="white" stroke="transparent" points="-4,4 -4,-207 1071,-207 1071,4 -4,4"/>
<text text-anchor="start" x="512.51" y="-42.4" font-family="Times-12" font-weight="bold" font-size="14.00">Legend</text>
<polygon fill="#ffffb3" stroke="transparent" points="299.5,-10 299.5,-30 319.5,-30 319.5,-10 299.5,-10"/>
<text text-anchor="start" x="323.13" y="-15.4" font-family="Times-12" font-size="14.00"> &#160;Declarations</text>
<polygon fill="#8dd3c7" stroke="transparent" points="412.5,-10 412.5,-30 432.5,-30 432.5,-10 412.5,-10"/>
<text text-anchor="start" x="436.23" y="-15.4" font-family="Times-12" font-size="14.00"> &#160;Module</text>
<polygon fill="#80b1d3" stroke="transparent" points="498.5,-10 498.5,-30 518.5,-30 518.5,-10 498.5,-10"/>
<text text-anchor="start" x="522.28" y="-15.4" font-family="Times-12" font-size="14.00"> &#160;Bootstrap</text>
<polygon fill="#fdb462" stroke="transparent" points="595.5,-10 595.5,-30 615.5,-30 615.5,-10 595.5,-10"/>
<text text-anchor="start" x="619.17" y="-15.4" font-family="Times-12" font-size="14.00"> &#160;Providers</text>
<polygon fill="#fb8072" stroke="transparent" points="691.5,-10 691.5,-30 711.5,-30 711.5,-10 691.5,-10"/>
<text text-anchor="start" x="715.23" y="-15.4" font-family="Times-12" font-size="14.00"> &#160;Exports</text>
<g id="clust1" class="cluster">
<title>cluster_App</title>
<polygon fill="none" stroke="black" stroke-dasharray="1,5" points="8,-70 8,-195 1059,-195 1059,-70 8,-70"/>
</g>
<g id="clust3" class="cluster">
<title>cluster_App_imports</title>
<polygon fill="none" stroke="black" points="16,-78 16,-130 1051,-130 1051,-78 16,-78"/>
</g>
<!-- CategoryGatewayModule -->
<g id="node1" class="node">
<title>CategoryGatewayModule</title>
<polygon fill="#8dd3c7" stroke="black" points="1043.11,-122 1040.11,-126 1019.11,-126 1016.11,-122 882.89,-122 882.89,-86 1043.11,-86 1043.11,-122"/>
<text text-anchor="middle" x="963" y="-99.8" font-family="Times,serif" font-size="14.00">CategoryGatewayModule</text>
</g>
<!-- App -->
<g id="node7" class="node">
<title>App</title>
<polygon fill="#8dd3c7" stroke="black" points="563,-187 560,-191 539,-191 536,-187 509,-187 509,-151 563,-151 563,-187"/>
<text text-anchor="middle" x="536" y="-164.8" font-family="Times,serif" font-size="14.00">App</text>
</g>
<!-- CategoryGatewayModule&#45;&gt;App -->
<g id="edge1" class="edge">
<title>CategoryGatewayModule&#45;&gt;App</title>
<path fill="none" stroke="black" d="M963,-122.28C963,-143.32 963,-175 963,-175 963,-175 573.03,-175 573.03,-175"/>
<polygon fill="black" stroke="black" points="573.03,-171.5 563.03,-175 573.03,-178.5 573.03,-171.5"/>
</g>
<!-- OrderGatewayModule -->
<g id="node2" class="node">
<title>OrderGatewayModule</title>
<polygon fill="#8dd3c7" stroke="black" points="864.94,-122 861.94,-126 840.94,-126 837.94,-122 723.06,-122 723.06,-86 864.94,-86 864.94,-122"/>
<text text-anchor="middle" x="794" y="-99.8" font-family="Times,serif" font-size="14.00">OrderGatewayModule</text>
</g>
<!-- OrderGatewayModule&#45;&gt;App -->
<g id="edge2" class="edge">
<title>OrderGatewayModule&#45;&gt;App</title>
<path fill="none" stroke="black" d="M794,-122.02C794,-139.37 794,-163 794,-163 794,-163 573.12,-163 573.12,-163"/>
<polygon fill="black" stroke="black" points="573.12,-159.5 563.12,-163 573.12,-166.5 573.12,-159.5"/>
</g>
<!-- ProductGatewayModule -->
<g id="node3" class="node">
<title>ProductGatewayModule</title>
<polygon fill="#8dd3c7" stroke="black" points="705.35,-122 702.35,-126 681.35,-126 678.35,-122 552.65,-122 552.65,-86 705.35,-86 705.35,-122"/>
<text text-anchor="middle" x="629" y="-99.8" font-family="Times,serif" font-size="14.00">ProductGatewayModule</text>
</g>
<!-- ProductGatewayModule&#45;&gt;App -->
<g id="edge3" class="edge">
<title>ProductGatewayModule&#45;&gt;App</title>
<path fill="none" stroke="black" d="M557.79,-122.11C557.79,-122.11 557.79,-140.99 557.79,-140.99"/>
<polygon fill="black" stroke="black" points="554.29,-140.99 557.79,-150.99 561.29,-140.99 554.29,-140.99"/>
</g>
<!-- SubCategoryGatewayModule -->
<g id="node4" class="node">
<title>SubCategoryGatewayModule</title>
<polygon fill="#8dd3c7" stroke="black" points="534.4,-122 531.4,-126 510.4,-126 507.4,-122 351.6,-122 351.6,-86 534.4,-86 534.4,-122"/>
<text text-anchor="middle" x="443" y="-99.8" font-family="Times,serif" font-size="14.00">SubCategoryGatewayModule</text>
</g>
<!-- SubCategoryGatewayModule&#45;&gt;App -->
<g id="edge4" class="edge">
<title>SubCategoryGatewayModule&#45;&gt;App</title>
<path fill="none" stroke="black" d="M521.6,-122.11C521.6,-122.11 521.6,-140.99 521.6,-140.99"/>
<polygon fill="black" stroke="black" points="518.1,-140.99 521.6,-150.99 525.1,-140.99 518.1,-140.99"/>
</g>
<!-- UserGatewayModule -->
<g id="node5" class="node">
<title>UserGatewayModule</title>
<polygon fill="#8dd3c7" stroke="black" points="333.72,-122 330.72,-126 309.72,-126 306.72,-122 198.28,-122 198.28,-86 333.72,-86 333.72,-122"/>
<text text-anchor="middle" x="266" y="-99.8" font-family="Times,serif" font-size="14.00">UserGatewayModule</text>
</g>
<!-- UserGatewayModule&#45;&gt;App -->
<g id="edge5" class="edge">
<title>UserGatewayModule&#45;&gt;App</title>
<path fill="none" stroke="black" d="M266,-122.02C266,-139.37 266,-163 266,-163 266,-163 498.88,-163 498.88,-163"/>
<polygon fill="black" stroke="black" points="498.88,-166.5 508.88,-163 498.88,-159.5 498.88,-166.5"/>
</g>
<!-- UserGetGatewayModule -->
<g id="node6" class="node">
<title>UserGetGatewayModule</title>
<polygon fill="#8dd3c7" stroke="black" points="179.94,-122 176.94,-126 155.94,-126 152.94,-122 24.06,-122 24.06,-86 179.94,-86 179.94,-122"/>
<text text-anchor="middle" x="102" y="-99.8" font-family="Times,serif" font-size="14.00">UserGetGatewayModule</text>
</g>
<!-- UserGetGatewayModule&#45;&gt;App -->
<g id="edge6" class="edge">
<title>UserGetGatewayModule&#45;&gt;App</title>
<path fill="none" stroke="black" d="M102,-122.28C102,-143.32 102,-175 102,-175 102,-175 498.85,-175 498.85,-175"/>
<polygon fill="black" stroke="black" points="498.85,-178.5 508.85,-175 498.85,-171.5 498.85,-178.5"/>
</g>
</g>
</svg>
